<mxfile host="app.diagrams.net" agent="Mozilla/5.0 (Windows NT 10.0; Win64; x64) AppleWebKit/537.36 (KHTML, like Gecko) Chrome/131.0.0.0 Safari/537.36" version="25.0.3">
  <diagram name="Page-1" id="xZsLK0tz0OmfjCFf6RGW">
    <mxGraphModel dx="2899" dy="1066" grid="1" gridSize="10" guides="1" tooltips="1" connect="1" arrows="1" fold="1" page="1" pageScale="1" pageWidth="850" pageHeight="1100" math="0" shadow="0">
      <root>
        <mxCell id="0" />
        <mxCell id="1" parent="0" />
        <mxCell id="uh7O1EpS0kLe0Fi4g0f8-6" style="edgeStyle=orthogonalEdgeStyle;rounded=0;orthogonalLoop=1;jettySize=auto;html=1;" edge="1" parent="1" source="uh7O1EpS0kLe0Fi4g0f8-1" target="uh7O1EpS0kLe0Fi4g0f8-3">
          <mxGeometry relative="1" as="geometry" />
        </mxCell>
        <mxCell id="uh7O1EpS0kLe0Fi4g0f8-1" value="&lt;font style=&quot;font-size: 24px;&quot;&gt;start&lt;/font&gt;" style="strokeWidth=2;html=1;shape=mxgraph.flowchart.start_1;whiteSpace=wrap;" vertex="1" parent="1">
          <mxGeometry x="-484" y="80" width="100" height="60" as="geometry" />
        </mxCell>
        <mxCell id="uh7O1EpS0kLe0Fi4g0f8-2" value="&lt;font style=&quot;font-size: 24px;&quot;&gt;end&lt;/font&gt;" style="strokeWidth=2;html=1;shape=mxgraph.flowchart.start_1;whiteSpace=wrap;" vertex="1" parent="1">
          <mxGeometry x="-484" y="890" width="100" height="60" as="geometry" />
        </mxCell>
        <mxCell id="uh7O1EpS0kLe0Fi4g0f8-7" style="edgeStyle=orthogonalEdgeStyle;rounded=0;orthogonalLoop=1;jettySize=auto;html=1;entryX=0.5;entryY=0;entryDx=0;entryDy=0;" edge="1" parent="1" source="uh7O1EpS0kLe0Fi4g0f8-3" target="uh7O1EpS0kLe0Fi4g0f8-5">
          <mxGeometry relative="1" as="geometry" />
        </mxCell>
        <mxCell id="uh7O1EpS0kLe0Fi4g0f8-3" value="input namA, ageA" style="shape=parallelogram;perimeter=parallelogramPerimeter;whiteSpace=wrap;html=1;fixedSize=1;" vertex="1" parent="1">
          <mxGeometry x="-510" y="190" width="152" height="30" as="geometry" />
        </mxCell>
        <mxCell id="uh7O1EpS0kLe0Fi4g0f8-24" style="edgeStyle=orthogonalEdgeStyle;rounded=0;orthogonalLoop=1;jettySize=auto;html=1;entryX=0.5;entryY=0;entryDx=0;entryDy=0;" edge="1" parent="1" source="uh7O1EpS0kLe0Fi4g0f8-4" target="uh7O1EpS0kLe0Fi4g0f8-21">
          <mxGeometry relative="1" as="geometry" />
        </mxCell>
        <mxCell id="uh7O1EpS0kLe0Fi4g0f8-4" value="temp = *age1" style="rounded=1;whiteSpace=wrap;html=1;absoluteArcSize=1;arcSize=14;strokeWidth=2;" vertex="1" parent="1">
          <mxGeometry x="-185" y="170" width="160" height="40" as="geometry" />
        </mxCell>
        <mxCell id="uh7O1EpS0kLe0Fi4g0f8-11" style="edgeStyle=orthogonalEdgeStyle;rounded=0;orthogonalLoop=1;jettySize=auto;html=1;exitX=0.5;exitY=1;exitDx=0;exitDy=0;entryX=0.5;entryY=0;entryDx=0;entryDy=0;" edge="1" parent="1" source="uh7O1EpS0kLe0Fi4g0f8-5" target="uh7O1EpS0kLe0Fi4g0f8-8">
          <mxGeometry relative="1" as="geometry" />
        </mxCell>
        <mxCell id="uh7O1EpS0kLe0Fi4g0f8-5" value="input namB, ageB" style="shape=parallelogram;perimeter=parallelogramPerimeter;whiteSpace=wrap;html=1;fixedSize=1;" vertex="1" parent="1">
          <mxGeometry x="-510" y="260" width="152" height="30" as="geometry" />
        </mxCell>
        <mxCell id="uh7O1EpS0kLe0Fi4g0f8-12" style="edgeStyle=orthogonalEdgeStyle;rounded=0;orthogonalLoop=1;jettySize=auto;html=1;entryX=0.5;entryY=0;entryDx=0;entryDy=0;" edge="1" parent="1" source="uh7O1EpS0kLe0Fi4g0f8-8" target="uh7O1EpS0kLe0Fi4g0f8-9">
          <mxGeometry relative="1" as="geometry" />
        </mxCell>
        <mxCell id="uh7O1EpS0kLe0Fi4g0f8-8" value="output&lt;div&gt;&quot;RESULT :&quot;&lt;/div&gt;" style="shape=parallelogram;perimeter=parallelogramPerimeter;whiteSpace=wrap;html=1;fixedSize=1;" vertex="1" parent="1">
          <mxGeometry x="-510" y="340" width="152" height="30" as="geometry" />
        </mxCell>
        <mxCell id="uh7O1EpS0kLe0Fi4g0f8-13" style="edgeStyle=orthogonalEdgeStyle;rounded=0;orthogonalLoop=1;jettySize=auto;html=1;" edge="1" parent="1" source="uh7O1EpS0kLe0Fi4g0f8-9" target="uh7O1EpS0kLe0Fi4g0f8-10">
          <mxGeometry relative="1" as="geometry" />
        </mxCell>
        <mxCell id="uh7O1EpS0kLe0Fi4g0f8-9" value="output&lt;br&gt;&quot;Name: &quot;, nameA, ageA" style="shape=parallelogram;perimeter=parallelogramPerimeter;whiteSpace=wrap;html=1;fixedSize=1;" vertex="1" parent="1">
          <mxGeometry x="-514" y="410" width="160" height="40" as="geometry" />
        </mxCell>
        <mxCell id="uh7O1EpS0kLe0Fi4g0f8-15" style="edgeStyle=orthogonalEdgeStyle;rounded=0;orthogonalLoop=1;jettySize=auto;html=1;entryX=0.5;entryY=0;entryDx=0;entryDy=0;" edge="1" parent="1" source="uh7O1EpS0kLe0Fi4g0f8-10" target="uh7O1EpS0kLe0Fi4g0f8-14">
          <mxGeometry relative="1" as="geometry" />
        </mxCell>
        <mxCell id="uh7O1EpS0kLe0Fi4g0f8-10" value="output&lt;br&gt;&quot;Name: &quot;, nameB, ageB" style="shape=parallelogram;perimeter=parallelogramPerimeter;whiteSpace=wrap;html=1;fixedSize=1;" vertex="1" parent="1">
          <mxGeometry x="-514" y="490" width="160" height="40" as="geometry" />
        </mxCell>
        <mxCell id="uh7O1EpS0kLe0Fi4g0f8-27" style="edgeStyle=orthogonalEdgeStyle;rounded=0;orthogonalLoop=1;jettySize=auto;html=1;entryX=0.5;entryY=0;entryDx=0;entryDy=0;" edge="1" parent="1" source="uh7O1EpS0kLe0Fi4g0f8-14" target="uh7O1EpS0kLe0Fi4g0f8-16">
          <mxGeometry relative="1" as="geometry" />
        </mxCell>
        <mxCell id="uh7O1EpS0kLe0Fi4g0f8-14" value="swapAge(ageA, AgeB)" style="verticalLabelPosition=bottom;verticalAlign=top;html=1;shape=process;whiteSpace=wrap;rounded=1;size=0.14;arcSize=6;" vertex="1" parent="1">
          <mxGeometry x="-502" y="580" width="136" height="30" as="geometry" />
        </mxCell>
        <mxCell id="uh7O1EpS0kLe0Fi4g0f8-28" style="edgeStyle=orthogonalEdgeStyle;rounded=0;orthogonalLoop=1;jettySize=auto;html=1;" edge="1" parent="1" source="uh7O1EpS0kLe0Fi4g0f8-16" target="uh7O1EpS0kLe0Fi4g0f8-17">
          <mxGeometry relative="1" as="geometry" />
        </mxCell>
        <mxCell id="uh7O1EpS0kLe0Fi4g0f8-16" value="output&lt;div&gt;&quot;RESULT :&quot;&lt;/div&gt;" style="shape=parallelogram;perimeter=parallelogramPerimeter;whiteSpace=wrap;html=1;fixedSize=1;" vertex="1" parent="1">
          <mxGeometry x="-510" y="660" width="152" height="30" as="geometry" />
        </mxCell>
        <mxCell id="uh7O1EpS0kLe0Fi4g0f8-29" style="edgeStyle=orthogonalEdgeStyle;rounded=0;orthogonalLoop=1;jettySize=auto;html=1;entryX=0.5;entryY=0;entryDx=0;entryDy=0;" edge="1" parent="1" source="uh7O1EpS0kLe0Fi4g0f8-17" target="uh7O1EpS0kLe0Fi4g0f8-18">
          <mxGeometry relative="1" as="geometry" />
        </mxCell>
        <mxCell id="uh7O1EpS0kLe0Fi4g0f8-17" value="output&lt;br&gt;&quot;Name: &quot;, nameA, ageA" style="shape=parallelogram;perimeter=parallelogramPerimeter;whiteSpace=wrap;html=1;fixedSize=1;" vertex="1" parent="1">
          <mxGeometry x="-514" y="730" width="160" height="40" as="geometry" />
        </mxCell>
        <mxCell id="uh7O1EpS0kLe0Fi4g0f8-18" value="output&lt;br&gt;&quot;Name: &quot;, nameB, ageB" style="shape=parallelogram;perimeter=parallelogramPerimeter;whiteSpace=wrap;html=1;fixedSize=1;" vertex="1" parent="1">
          <mxGeometry x="-514" y="810" width="160" height="40" as="geometry" />
        </mxCell>
        <mxCell id="uh7O1EpS0kLe0Fi4g0f8-23" style="edgeStyle=orthogonalEdgeStyle;rounded=0;orthogonalLoop=1;jettySize=auto;html=1;entryX=0.5;entryY=0;entryDx=0;entryDy=0;" edge="1" parent="1" source="uh7O1EpS0kLe0Fi4g0f8-19" target="uh7O1EpS0kLe0Fi4g0f8-4">
          <mxGeometry relative="1" as="geometry" />
        </mxCell>
        <mxCell id="uh7O1EpS0kLe0Fi4g0f8-19" value="swapAge(*age1, *age2)" style="strokeWidth=2;html=1;shape=mxgraph.flowchart.start_1;whiteSpace=wrap;" vertex="1" parent="1">
          <mxGeometry x="-190" y="80" width="170" height="50" as="geometry" />
        </mxCell>
        <mxCell id="uh7O1EpS0kLe0Fi4g0f8-20" value="&lt;font style=&quot;font-size: 24px;&quot;&gt;end&lt;/font&gt;" style="strokeWidth=2;html=1;shape=mxgraph.flowchart.start_1;whiteSpace=wrap;" vertex="1" parent="1">
          <mxGeometry x="-155" y="420" width="100" height="60" as="geometry" />
        </mxCell>
        <mxCell id="uh7O1EpS0kLe0Fi4g0f8-25" style="edgeStyle=orthogonalEdgeStyle;rounded=0;orthogonalLoop=1;jettySize=auto;html=1;entryX=0.5;entryY=0;entryDx=0;entryDy=0;" edge="1" parent="1" source="uh7O1EpS0kLe0Fi4g0f8-21" target="uh7O1EpS0kLe0Fi4g0f8-22">
          <mxGeometry relative="1" as="geometry" />
        </mxCell>
        <mxCell id="uh7O1EpS0kLe0Fi4g0f8-21" value="*age1 = *age2" style="rounded=1;whiteSpace=wrap;html=1;absoluteArcSize=1;arcSize=14;strokeWidth=2;" vertex="1" parent="1">
          <mxGeometry x="-185" y="255" width="160" height="40" as="geometry" />
        </mxCell>
        <mxCell id="uh7O1EpS0kLe0Fi4g0f8-22" value="*age2 = temp" style="rounded=1;whiteSpace=wrap;html=1;absoluteArcSize=1;arcSize=14;strokeWidth=2;" vertex="1" parent="1">
          <mxGeometry x="-185" y="335" width="160" height="40" as="geometry" />
        </mxCell>
        <mxCell id="uh7O1EpS0kLe0Fi4g0f8-26" style="edgeStyle=orthogonalEdgeStyle;rounded=0;orthogonalLoop=1;jettySize=auto;html=1;entryX=0.5;entryY=0;entryDx=0;entryDy=0;entryPerimeter=0;" edge="1" parent="1" source="uh7O1EpS0kLe0Fi4g0f8-22" target="uh7O1EpS0kLe0Fi4g0f8-20">
          <mxGeometry relative="1" as="geometry" />
        </mxCell>
        <mxCell id="uh7O1EpS0kLe0Fi4g0f8-30" style="edgeStyle=orthogonalEdgeStyle;rounded=0;orthogonalLoop=1;jettySize=auto;html=1;entryX=0.5;entryY=0;entryDx=0;entryDy=0;entryPerimeter=0;" edge="1" parent="1" source="uh7O1EpS0kLe0Fi4g0f8-18" target="uh7O1EpS0kLe0Fi4g0f8-2">
          <mxGeometry relative="1" as="geometry" />
        </mxCell>
      </root>
    </mxGraphModel>
  </diagram>
</mxfile>
